<?xml version="1.0" encoding="UTF-8"?>
<!DOCTYPE svg PUBLIC "-//W3C//DTD SVG 1.1//EN" "http://www.w3.org/Graphics/SVG/1.1/DTD/svg11.dtd">
<!-- Creator: CorelDRAW -->
<svg xmlns="http://www.w3.org/2000/svg" xml:space="preserve" width="8.5in" height="11in" version="1.1" style="shape-rendering:geometricPrecision; text-rendering:geometricPrecision; image-rendering:optimizeQuality; fill-rule:evenodd; clip-rule:evenodd"
viewBox="0 0 8500 11000"
 xmlns:xlink="http://www.w3.org/1999/xlink"
 xmlns:xodm="http://www.corel.com/coreldraw/odm/2003">
 <defs>
  <style type="text/css">
   <![CDATA[
    .fil0 {fill:#211D59}
    .fil1 {fill:#54C6CF}
    .fil2 {fill:#7C7599}
    .fil3 {fill:white}
    .fil4 {fill:white}
   ]]>
  </style>
 </defs>
 <g id="Слой_x0020_1">
  <metadata id="CorelCorpID_0Corel-Layer"/>
  <g id="_1520046779056">
   <path class="fil0" d="M26699.99 9334.37l1458.15 0 0 1472.04 -1458.15 0 0 -1472.04zm-2652.45 -569.37c32.94,22.06 119.54,137.83 198.5,204.22 225.79,189.85 556.61,365.15 884.7,365.15l1263.73 0 0 1472.04 -1180.41 0c-253.02,0 -454.34,-78.39 -613.91,-177.66 -364.48,-226.76 -555.04,-604.57 -552.71,-1058.2 1.38,-268.39 0.09,-537.13 0.09,-805.55zm2647.26 278.65c0.99,-319.67 0.19,-639.45 0.19,-959.13 -0.01,-321.29 13.93,-577.29 157.06,-806.28 129.2,-206.69 265.61,-348.71 494.35,-464.63 236.3,-119.75 513.02,-148.43 824.95,-125.46l0.11 2355.28 -1476.65 0.22zm1771.48 -2358.03l1464.28 1.4c14.83,95.54 5.28,794.72 5.28,953.11 0,331.98 -9.98,563.33 -150.91,807.84 -108.96,189.05 -287.05,370.43 -490.33,467.99 -305.77,146.74 -456.88,126.69 -833.2,127.59l4.87 -2357.94zm-4418.72 885.14l1624.78 -0.24c329.37,0 580.5,211.13 672.71,437.88 99.21,243.98 60.71,731.78 61.56,1033.41l-1150.89 1.69c-669.12,0 -1208.43,-496.64 -1208.33,-1167.28l0.07 -236.08 0.09 -69.38zm-0.02 -1763.73l1152.63 0c637.66,0 1115.26,459.61 1191,1017.06 24.68,181.63 3.3,545.41 3.3,746.61 -44.25,-29.63 -76.36,-70.05 -128.66,-107.42 -45.37,-32.42 -99.76,-63.2 -148.74,-87.33 -83.64,-41.22 -251.2,-96.87 -375.29,-96.87l-1694.23 0 0 -1472.04zm0 -333.29l0 -1430.37 2083.07 0c608.63,0 1077.24,255.44 1475.57,649.16 413.09,408.31 565.84,981.13 565.84,1572.78l0 124.98c-368.85,0 -662.15,-7.68 -990.46,176.06 -220.66,123.5 -324.7,226.72 -481.58,407.2 0,-694.61 -500.37,-1285.81 -1153.43,-1429.58 -217.09,-47.79 -1085.77,-29.82 -1403.01,-27.37 -51.76,0.4 -96.01,10.71 -96.01,-42.87zm-291.63 -1597.02l0 5846.49c0,207.76 83.18,449.72 160.72,589.19 24.38,43.85 38.17,77.57 63.88,116.65 26.46,40.23 54.19,73.02 82.8,111.61 311.29,419.88 783.97,571.25 1317.4,571.25l2874.64 0c104.56,0 208.31,-34.69 208.31,-152.76l0 -1624.8c371.13,0 599.47,27.88 939.72,-143.48 309.72,-155.98 538.52,-383.48 689.89,-698.82 65.59,-136.64 134.05,-364.87 134.05,-560.3l0 -1402.6c0,-86.89 -77,-138.87 -166.65,-138.87l-1597.02 0c0,-525.91 -0.78,-851.86 -240.68,-1328.56 -125.46,-249.3 -316.29,-520.94 -532.89,-703.07 -32.61,-27.42 -43.59,-45.43 -79.34,-73.41 -549.52,-430.11 -998.35,-547.4 -1757.87,-547.4l-1888.65 0c-105.48,0 -208.31,35.65 -208.31,138.87z"/>
   <path class="fil1" d="M26694.8 9043.65l1476.65 -0.22 -0.11 -2355.28c-311.93,-22.96 -588.65,5.72 -824.95,125.46 -228.74,115.93 -365.16,257.94 -494.35,464.63 -143.13,228.99 -157.06,484.99 -157.06,806.28 0,319.68 0.81,639.46 -0.19,959.13z"/>
   <path class="fil1" d="M28461.4 9043.56c376.31,-0.91 527.43,19.15 833.2,-127.59 203.28,-97.56 381.36,-278.94 490.33,-467.99 140.93,-244.51 150.91,-475.86 150.91,-807.84 0,-158.39 9.55,-857.57 -5.28,-953.11l-1464.28 -1.4 -4.87 2357.94z"/>
   <path class="fil1" d="M24047.47 7640.13l-0.07 236.08c-0.09,670.64 539.21,1167.28 1208.33,1167.28l1150.89 -1.69c-0.85,-301.63 37.65,-789.43 -61.56,-1033.41 -92.2,-226.75 -343.34,-437.88 -672.71,-437.88l-1624.78 0.24 -0.09 69.38z"/>
  </g>
  <g id="_1520046769072">
   <path class="fil0" d="M32727.01 6793.02c17.7,75.98 45.74,132.84 73.58,204.17l153.81 401.67c27.1,76.35 60.7,138.71 78.13,213.5l-624.92 0c5.04,-60.57 122.14,-337.74 151.13,-418.24 17.21,-47.78 130.41,-373.36 168.27,-401.1zm-902.66 1485.93c0,98.31 65.53,152.76 166.65,152.76 120.02,0 145.63,-142.87 182.53,-234.08 38.02,-93.99 76.56,-219.78 122.98,-307.52l847.12 0c14.35,61.61 172.4,467.51 206.54,501.7 66.08,66.18 251.74,71.33 251.74,-112.87 0,-68.19 -580.7,-1546.53 -658.24,-1730.35 -87.24,-206.82 -342.76,-219.77 -442.87,-9.56l-676.44 1739.91z"/>
   <path class="fil0" d="M35796.07 10861.95c-78.45,0 -156.58,-18.89 -213.24,-50.61 -38.46,-21.53 -120.05,-81.78 -120.05,-129.92l0 -472.16c0,-73.92 325.58,-355.54 594.04,-66.33 243.2,262 55.37,719.02 -260.75,719.02zm-347.18 -958.21c-4.38,-196.58 -291.63,-192.68 -291.63,41.66l0 1722.01c0,230.36 254.09,226.26 297.94,75.74 19.11,-65.58 7.59,-156.12 7.58,-228.5 -0.02,-162.02 0,-324.03 0,-486.05 48.96,13.07 98.6,56.47 158.75,77.33 423.39,146.86 855.01,-200.29 855.01,-646.7 0,-562.74 -508.34,-849.28 -861.46,-667.04 -121.39,62.65 -100.98,94.15 -166.19,111.56z"/>
   <path class="fil0" d="M41739.77 10124.12c-31.31,-49.45 -6.73,-650.04 -5.54,-753.44 42.46,-8.43 310.13,-18.24 330.65,5.35 237.3,15.83 423.63,243.98 317.96,518.09 -88.83,230.43 -322.15,246.23 -643.08,230zm-319.4 -900.85l0 1735.89c0,225.93 319.4,225.92 319.4,-27.78l0 -527.71c313.28,0 572.26,36.73 809.42,-190.45 46.68,-44.72 102,-124.87 129.38,-190.03 73.22,-174.28 82.78,-371.59 1.15,-545.58 -219.33,-467.5 -675.54,-393.21 -1120.48,-393.21 -69.82,0 -138.87,69.05 -138.87,138.87z"/>
   <path class="fil0" d="M31852.12 10042.61c0,345.63 62.86,567.44 301.98,808.99 472.65,477.45 1364.48,272.51 1364.48,-3.54 0,-88.86 -67.83,-124.98 -152.76,-124.98 -76.24,0 -202.89,124.98 -472.17,124.98 -694.58,0 -914.13,-797.42 -543.96,-1266.09 175.85,-222.65 532.37,-293.22 802.38,-186.62 58.98,23.29 132.23,77.89 199.86,77.89 71.08,0 138.87,-73.04 138.87,-138.87 0,-196.1 -421.51,-277.74 -666.58,-277.74 -520.59,0 -972.1,463.79 -972.1,985.99z"/>
   <path class="fil0" d="M40031.65 6459.72l0 1819.22c0,154.69 200.89,208.99 280.43,86.01 47.63,-73.66 24.14,-613.96 24.31,-753.38 0.1,-86.21 7.25,-96.96 52.34,-142.08 130.17,-130.28 167.92,-134.87 337.29,-134.87 83.52,0 168.57,72.45 195.46,165.61 47.34,164.03 -30.35,771.51 37.14,865.52 87.31,121.61 267.33,63.95 267.33,-59.03l0 -819.34c0,-238.64 -205.18,-430.5 -486.05,-430.5 -200.83,0 -283.75,86.98 -402.72,166.65l-2.63 -788.94c-30.9,-190.57 -302.89,-157.85 -302.89,25.14z"/>
   <path class="fil0" d="M35626.43 8306.72l9.71 -736.11 618.21 -2.9c173.6,10.99 203.61,-265.89 -27.27,-275.25 -175.57,-7.12 -408.15,-5.88 -583.76,2.13 -30,-52.61 -13.83,-569.56 -8.09,-606.65 87.45,-24.96 574.15,-9.4 702.44,-9.19 164.94,11.31 181.82,-224.37 49.06,-268.07 -34.85,-11.47 -914.27,-21.28 -980.89,6 -117.05,47.92 -81.93,250.55 -81.93,431.9 0,132.74 -16.2,1426.33 8.97,1490.84 54.42,139.5 294.69,118.64 293.56,-32.69z"/>
   <path class="fil0" d="M48669.46 10000.95c187.22,0 343.78,69.98 361.07,277.74l-666.58 0c5.58,-67.06 59.77,-154.1 99.93,-191.69 42.16,-39.46 128.27,-86.05 205.58,-86.05zm-624.92 430.5c0,906.51 1194.3,775.79 1194.3,499.94 0,-258.67 -271.7,-69.44 -416.61,-69.44 -256.09,0 -466.79,-119.66 -472.17,-361.06l749.91 0c288.71,0 219.86,-282.49 153.02,-416.87 -76.12,-153.04 -132.06,-219.98 -291.87,-291.39 -428.45,-191.43 -916.57,138.83 -916.57,638.82z"/>
   <path class="fil0" d="M39045.67 8195.62c-167.28,0 -323.54,-204.76 25.84,-307.45 68.2,-20.04 233.93,-53.61 321.34,-53.61 0,188.77 32.83,220.16 -141.08,303.31 -48.48,23.18 -140.11,57.76 -206.1,57.76zm-236.08 -777.68c35.84,0 583.26,-269.77 583.26,138.87l0 55.55c-231.9,0 -819.34,85 -819.34,430.5 0,420.69 422.87,494.77 709.31,320.47 45.01,-27.39 64.23,-46.27 110.03,-70.5 4.38,196.58 291.63,192.68 291.63,-41.66 0,-185.71 15.38,-740.18 -22.29,-894.26 -18.17,-74.32 -46.95,-112.54 -91.87,-158.1 -203.54,-206.46 -595.79,-161.07 -799.98,-42.31 -176.9,102.88 -65.56,261.44 39.25,261.44z"/>
   <path class="fil0" d="M43364.57 10875.84c-267.06,0 -229.29,-193.91 -139.31,-250.41 84.12,-52.83 363.24,-102.71 458.72,-110.65l0 222.19c-75.74,40.08 -194.92,138.87 -319.4,138.87zm-388.84 -916.55c0,273.24 273.73,55.55 444.39,55.55 75.99,0 176.78,6.59 225.36,66.27 37.62,46.21 38.5,130.09 38.5,211.47 -81.88,19.07 -191.58,27.14 -277.89,41.52 -246.7,41.09 -541.45,121.78 -541.45,430.65 0,300.3 341.94,505.99 730.47,272.19 38.36,-23.08 57.54,-42.9 88.87,-63.89 4.44,199.01 291.63,204 291.63,-27.78l0 -722.13c0,-165.88 -39.13,-275.91 -128.08,-357.97 -268.28,-247.48 -871.8,-84.11 -871.8,94.11z"/>
   <path class="fil0" d="M34199.05 10875.84c-64.14,0 -110.61,3.8 -157.39,-37.03 -70.74,-61.75 -68.44,-161.36 18.15,-213.3 90.66,-54.38 355.23,-102.13 458.64,-110.73l0 222.19c-83.64,44.26 -196.2,138.87 -319.41,138.87zm-277.74 -777.68c70.04,0 101.98,-26.36 161.12,-47.19 105.64,-37.2 314.3,-73.05 395.6,32.06 35.78,46.25 40.43,124.56 40.43,209.55 -190.51,44.38 -285.64,19.85 -533.2,105.61 -576.97,199.86 -202.77,960.78 353.07,686.36 119.93,-59.21 81.92,-45.73 180.13,-111.5 4.39,197.12 291.63,221.9 291.63,-55.55l0 -638.81c0,-237.73 -48.67,-419.84 -265.35,-498.44 -204.24,-74.08 -464.84,-37.3 -628.26,49.22 -53.51,28.33 -106.91,61.58 -113.84,133.65 -6.13,63.69 40.46,135.04 118.67,135.04z"/>
   <path class="fil0" d="M38976.23 10875.84c-242.35,0 -377,-301.96 333.29,-361.07l0 222.19c-81.97,54.89 -199.77,138.87 -333.29,138.87zm-374.95 -916.55c0,268.51 242.94,55.55 499.94,55.55 211.04,0 208.31,152.29 208.31,277.74 -243.72,56.78 -819.34,37.55 -819.34,472.16 0,298.32 338.98,469.15 639.07,319.67 132.05,-65.78 80.37,-44.46 180.28,-111.36 4.36,195.94 291.63,208.41 291.63,-27.78l0 -749.91c0,-449.67 -445.75,-528.4 -803.64,-400.91 -74.08,26.39 -196.24,64.95 -196.24,164.83z"/>
   <path class="fil0" d="M37018.14 8195.62c-190.56,0 -301.26,-225.95 24.54,-308.75 63.82,-16.22 231.51,-52.31 308.75,-52.31l0 194.42c0,69.31 -241,166.65 -333.29,166.65zm-236.08 -777.68c100.71,0 80.19,-83.32 388.84,-83.32 209.98,0 180.53,158.9 180.53,277.74 -241.89,5.39 -805.45,89.07 -805.45,430.5 0,225.49 113.33,373.18 334.2,402.78 277.66,37.21 419.06,-135.16 485.15,-152.81 4.47,200.91 277.74,169.45 277.74,13.89l0 -888.78c0,-227.99 -239.56,-361.06 -499.94,-361.06 -390.64,0 -600.71,210.97 -452.93,327.91 12.9,10.21 75.36,33.15 91.87,33.15z"/>
   <path class="fil0" d="M46878.02 9917.63c-17.43,-209.46 -305.52,-206.74 -305.52,13.89l0 1013.76c0,176.32 187.25,241.01 275.74,109.09 55.59,-82.87 28.43,-613.6 28.85,-762.72 0.81,-283.81 528.35,-415.13 586.87,-71.19 42.91,252.17 -40.67,767.27 48.38,854.3 96.44,94.26 254.45,32.8 254.45,-101.71l0 -777.68c0,-378.94 -453.22,-603.92 -805.69,-347.41 -34.85,25.36 -48.17,46.3 -83.08,69.67z"/>
   <path class="fil0" d="M50572 10139.82c0,442.38 708.24,364.41 708.24,611.04 0,102.44 -120.28,124.98 -222.19,124.98 -222.16,0 -299.91,-136.94 -415.5,-97.19 -172.36,59.27 -117.59,361.05 443.27,361.05 224.78,0 486.05,-141.09 486.05,-361.07 0,-159.76 4.64,-224.99 -148.43,-337.62 -176.09,-129.57 -686.31,-193.06 -529.42,-381.48 91.1,-109.42 338.69,-31.77 436.55,2.87 202.67,71.74 310.42,-180.11 34.99,-271.75 -389.19,-129.48 -793.57,5.63 -793.57,349.18z"/>
   <path class="fil0" d="M37268.11 9931.51c0,117.47 99.05,97.21 208.31,97.21l0 583.26c0,326.66 113.52,527.71 444.39,527.71 101.53,0 416.61,-53.59 416.61,-208.31 0,-219.54 -254.8,-93.19 -258.68,-92.04 -143.68,42.59 -296.8,34.27 -296.8,-157.93 0,-709.5 -48.12,-656.02 124.5,-653.18 258.96,4.27 403.21,41.99 403.21,-138.39 0,-174.92 -284.72,-124.98 -527.71,-124.98 0,-132.42 19.87,-208.31 -111.1,-208.31 -23.31,0 -402.73,302.63 -402.73,374.95z"/>
   <path class="fil0" d="M45294.88 9945.4c0,76.44 61.28,82 139.67,82.52 113.77,0.76 83.8,32.4 82.64,153.44 -1.46,152.57 -0.03,305.76 -0.12,458.4 -0.12,209.04 17.72,373.29 221.98,458.48 222.29,92.71 625.13,11.15 625.13,-180.74 0,-220.37 -291.7,-55.55 -361.06,-55.55 -139.02,0 -194.42,-68.67 -194.42,-208.31 0,-683.49 -46.1,-628.21 124.5,-625.4 283.75,4.68 403.21,36.37 403.21,-138.39 0,-174.92 -284.73,-124.98 -527.71,-124.98 0,-95.03 18.26,-208.31 -83.32,-208.31 -80.78,0 -179.98,123.8 -236.08,166.65 -52.18,39.85 -194.42,153.28 -194.42,222.19z"/>
   <path class="fil0" d="M39948.33 9167.72l0 1763.67c0,96.76 48.41,168.47 133.19,187.1 88.85,19.53 172.33,-57.13 172.33,-145.44l0 -1819.22c0,-227.41 -305.52,-222.97 -305.52,13.89z"/>
   <path class="fil0" d="M38004.13 6473.61l0 1791.44c0,222.96 305.52,231.18 305.52,-13.89l0 -1791.44c0,-193.04 -305.52,-221.31 -305.52,13.89z"/>
   <path class="fil0" d="M33851.87 6487.5l0 1763.67c0,245.07 305.52,236.85 305.52,13.89l0 -1819.22c0,-167.58 -305.52,-218.62 -305.52,41.66z"/>
   <path class="fil0" d="M44628.3 9959.29c0,-291.42 -305.52,-218.55 -305.52,-41.66l0 1027.65c0,206.71 246.33,242.79 297.78,61.69 43.69,-153.78 -38.72,-702.03 38.62,-794.6 164.86,-197.33 313.53,-140.78 392.01,-163.48 66.81,-19.32 118.83,-83.04 114.48,-157.46 -10.73,-183.75 -288.56,-218.41 -537.38,67.86z"/>
   <path class="fil0" d="M49903.61 9945.4l-20.69 22.8 -9.37 -64.46c17.67,-186.74 -279.3,-194.9 -288.31,13.11 -8.25,190.24 0.78,404.85 0.78,597.92 0,144.12 -31.22,464.89 32.52,550.75 43.29,58.31 135.27,75.13 200.26,29.39 144.3,-101.55 10.58,-449.63 59.75,-801.44 8.43,-60.31 77.86,-134.09 126.3,-165.33 77.02,-49.69 116.06,-65.64 233.72,-71.8 234.41,-12.27 242.57,-262.82 64.19,-300.62 -168.74,-35.75 -334.14,103.46 -399.13,189.68z"/>
   <path class="fil0" d="M36754.29 9903.74l0 1069.31c0,191.3 305.52,215.51 305.52,-41.66l0 -985.99c0,-260.28 -305.52,-209.24 -305.52,-41.66z"/>
   <path class="fil0" d="M36726.51 9306.59c0,232.86 361.07,221.5 361.07,0 0,-231.56 -361.07,-252.85 -361.07,0z"/>
   <path class="fil2" d="M35643.31 7294.59l0 -598.78 611.55 0.63c3.43,0.02 41.22,0.18 41.75,0.11 65.31,-9.43 15.7,1.97 41.06,-17.8 -128.3,-0.21 -614.99,-15.77 -702.44,9.19 -5.75,37.1 -21.91,554.05 8.09,606.65z"/>
   <path class="fil2" d="M35626.43 8306.72c12.01,-15.57 16.57,3.73 17.97,-68.54l-1.09 -653.59c59.99,0 562.27,20.73 611.04,-16.88l-618.21 2.9 -9.71 736.11z"/>
   <path class="fil2" d="M41739.77 10124.12l0 -748.09 325.11 0c-20.52,-23.59 -288.19,-13.78 -330.65,-5.35 -1.2,103.4 -25.78,703.99 5.54,753.44z"/>
   <path class="fil2" d="M49903.61 9945.4l-10.07 -16.65c-1.21,-1.64 -4.63,-6.56 -6,-8.37 -1.43,-1.89 -5.45,-6.63 -6.78,-8.34 -1.36,-1.76 -4.84,-5.51 -7.22,-8.31l9.37 64.46 20.69 -22.8z"/>
  </g>
  <g id="_1520046770080">
   <path class="fil3" d="M26699.99 21225l1458.15 0 0 1472.04 -1458.15 0 0 -1472.04zm-2652.45 -569.37c32.94,22.06 119.54,137.83 198.5,204.22 225.79,189.85 556.61,365.15 884.7,365.15l1263.73 0 0 1472.04 -1180.41 0c-253.02,0 -454.34,-78.39 -613.91,-177.66 -364.48,-226.76 -555.04,-604.57 -552.71,-1058.2 1.38,-268.39 0.09,-537.13 0.09,-805.55zm2647.26 278.65c0.99,-319.67 0.19,-639.45 0.19,-959.13 -0.01,-321.29 13.93,-577.29 157.06,-806.28 129.2,-206.69 265.61,-348.71 494.35,-464.63 236.3,-119.75 513.02,-148.43 824.95,-125.46l0.11 2355.28 -1476.65 0.22zm1771.48 -2358.03l1464.28 1.4c14.83,95.54 5.28,794.72 5.28,953.11 0,331.98 -9.98,563.33 -150.91,807.84 -108.96,189.05 -287.05,370.43 -490.33,467.99 -305.77,146.74 -456.88,126.69 -833.2,127.59l4.87 -2357.94zm-4418.72 885.14l1624.78 -0.24c329.37,0 580.5,211.13 672.71,437.88 99.21,243.98 60.71,731.78 61.56,1033.41l-1150.89 1.69c-669.12,0 -1208.43,-496.64 -1208.33,-1167.28l0.07 -236.08 0.09 -69.38zm-0.02 -1763.73l1152.63 0c637.66,0 1115.26,459.61 1191,1017.06 24.68,181.63 3.3,545.41 3.3,746.61 -44.25,-29.63 -76.36,-70.05 -128.66,-107.42 -45.37,-32.42 -99.76,-63.2 -148.74,-87.33 -83.64,-41.22 -251.2,-96.87 -375.29,-96.87l-1694.23 0 0 -1472.04zm0 -333.29l0 -1430.37 2083.07 0c608.63,0 1077.24,255.44 1475.57,649.16 413.09,408.31 565.84,981.13 565.84,1572.78l0 124.98c-368.85,0 -662.15,-7.68 -990.46,176.06 -220.66,123.5 -324.7,226.72 -481.58,407.2 0,-694.61 -500.37,-1285.81 -1153.43,-1429.58 -217.09,-47.79 -1085.77,-29.82 -1403.01,-27.37 -51.76,0.4 -96.01,10.71 -96.01,-42.87zm-291.63 -1597.02l0 5846.49c0,207.76 83.18,449.72 160.72,589.19 24.38,43.85 38.17,77.57 63.88,116.65 26.46,40.23 54.19,73.02 82.8,111.61 311.29,419.88 783.97,571.25 1317.4,571.25l2874.64 0c104.56,0 208.31,-34.69 208.31,-152.76l0 -1624.8c371.13,0 599.47,27.88 939.72,-143.48 309.72,-155.98 538.52,-383.48 689.89,-698.82 65.59,-136.64 134.05,-364.87 134.05,-560.3l0 -1402.6c0,-86.89 -77,-138.87 -166.65,-138.87l-1597.02 0c0,-525.91 -0.78,-851.86 -240.68,-1328.56 -125.46,-249.3 -316.29,-520.94 -532.89,-703.07 -32.61,-27.42 -43.59,-45.43 -79.34,-73.41 -549.52,-430.11 -998.35,-547.4 -1757.87,-547.4l-1888.65 0c-105.48,0 -208.31,35.65 -208.31,138.87z"/>
   <path class="fil1" d="M26694.8 20934.28l1476.65 -0.22 -0.11 -2355.28c-311.93,-22.96 -588.65,5.72 -824.95,125.46 -228.74,115.93 -365.16,257.94 -494.35,464.63 -143.13,228.99 -157.06,484.99 -157.06,806.28 0,319.68 0.81,639.46 -0.19,959.13z"/>
   <path class="fil1" d="M28461.4 20934.19c376.31,-0.91 527.43,19.15 833.2,-127.59 203.28,-97.56 381.36,-278.94 490.33,-467.99 140.93,-244.51 150.91,-475.86 150.91,-807.84 0,-158.39 9.55,-857.57 -5.28,-953.11l-1464.28 -1.4 -4.87 2357.94z"/>
   <path class="fil1" d="M24047.47 19530.76l-0.07 236.08c-0.09,670.64 539.21,1167.28 1208.33,1167.28l1150.89 -1.69c-0.85,-301.63 37.65,-789.43 -61.56,-1033.41 -92.2,-226.75 -343.34,-437.88 -672.71,-437.88l-1624.78 0.24 -0.09 69.38z"/>
   <g>
    <path class="fil4" d="M32727.01 18683.65c17.7,75.98 45.74,132.84 73.58,204.17l153.81 401.67c27.1,76.35 60.7,138.71 78.13,213.5l-624.92 0c5.04,-60.57 122.14,-337.74 151.13,-418.24 17.21,-47.78 130.41,-373.36 168.27,-401.1zm-902.66 1485.93c0,98.31 65.53,152.76 166.65,152.76 120.02,0 145.63,-142.87 182.53,-234.08 38.02,-93.99 76.56,-219.78 122.98,-307.52l847.12 0c14.35,61.61 172.4,467.51 206.54,501.7 66.08,66.18 251.74,71.33 251.74,-112.87 0,-68.19 -580.7,-1546.53 -658.24,-1730.35 -87.24,-206.82 -342.76,-219.77 -442.87,-9.56l-676.44 1739.91z"/>
    <path class="fil4" d="M35796.07 22752.58c-78.45,0 -156.58,-18.89 -213.24,-50.61 -38.46,-21.53 -120.05,-81.78 -120.05,-129.92l0 -472.16c0,-73.92 325.58,-355.54 594.04,-66.33 243.2,262 55.37,719.02 -260.75,719.02zm-347.18 -958.21c-4.38,-196.58 -291.63,-192.68 -291.63,41.66l0 1722.01c0,230.36 254.09,226.26 297.94,75.74 19.11,-65.58 7.59,-156.12 7.58,-228.5 -0.02,-162.02 0,-324.03 0,-486.05 48.96,13.07 98.6,56.47 158.75,77.33 423.39,146.86 855.01,-200.29 855.01,-646.7 0,-562.74 -508.34,-849.28 -861.46,-667.04 -121.39,62.65 -100.98,94.15 -166.19,111.56z"/>
    <path class="fil4" d="M41739.77 22014.75c-31.31,-49.45 -6.73,-650.04 -5.54,-753.44 42.46,-8.43 310.13,-18.24 330.65,5.35 237.3,15.83 423.63,243.98 317.96,518.09 -88.83,230.43 -322.15,246.23 -643.08,230zm-319.4 -900.85l0 1735.89c0,225.93 319.4,225.92 319.4,-27.78l0 -527.71c313.28,0 572.26,36.73 809.42,-190.45 46.68,-44.72 102,-124.87 129.38,-190.03 73.22,-174.28 82.78,-371.59 1.15,-545.58 -219.33,-467.5 -675.54,-393.21 -1120.48,-393.21 -69.82,0 -138.87,69.05 -138.87,138.87z"/>
    <path class="fil4" d="M31852.12 21933.24c0,345.63 62.86,567.44 301.98,808.99 472.65,477.45 1364.48,272.51 1364.48,-3.54 0,-88.86 -67.83,-124.98 -152.76,-124.98 -76.24,0 -202.89,124.98 -472.17,124.98 -694.58,0 -914.13,-797.42 -543.96,-1266.09 175.85,-222.65 532.37,-293.22 802.38,-186.62 58.98,23.29 132.23,77.89 199.86,77.89 71.08,0 138.87,-73.04 138.87,-138.87 0,-196.1 -421.51,-277.74 -666.58,-277.74 -520.59,0 -972.1,463.79 -972.1,985.99z"/>
    <path class="fil4" d="M40031.65 18350.35l0 1819.22c0,154.69 200.89,208.99 280.43,86.01 47.63,-73.66 24.14,-613.96 24.31,-753.38 0.1,-86.21 7.25,-96.96 52.34,-142.08 130.17,-130.28 167.92,-134.87 337.29,-134.87 83.52,0 168.57,72.45 195.46,165.61 47.34,164.03 -30.35,771.51 37.14,865.52 87.31,121.61 267.33,63.95 267.33,-59.03l0 -819.34c0,-238.64 -205.18,-430.5 -486.05,-430.5 -200.83,0 -283.75,86.98 -402.72,166.65l-2.63 -788.94c-30.9,-190.57 -302.89,-157.85 -302.89,25.14z"/>
    <path class="fil4" d="M35626.43 20197.35l9.71 -736.11 618.21 -2.9c173.6,10.99 203.61,-265.89 -27.27,-275.25 -175.57,-7.12 -408.15,-5.88 -583.76,2.13 -30,-52.61 -13.83,-569.56 -8.09,-606.65 87.45,-24.96 574.15,-9.4 702.44,-9.19 164.94,11.31 181.82,-224.37 49.06,-268.07 -34.85,-11.47 -914.27,-21.28 -980.89,6 -117.05,47.92 -81.93,250.55 -81.93,431.9 0,132.74 -16.2,1426.33 8.97,1490.84 54.42,139.5 294.69,118.64 293.56,-32.69z"/>
    <path class="fil4" d="M48669.46 21891.58c187.22,0 343.78,69.98 361.07,277.74l-666.58 0c5.58,-67.06 59.77,-154.1 99.93,-191.69 42.16,-39.46 128.27,-86.05 205.58,-86.05zm-624.92 430.5c0,906.51 1194.3,775.79 1194.3,499.94 0,-258.67 -271.7,-69.44 -416.61,-69.44 -256.09,0 -466.79,-119.66 -472.17,-361.06l749.91 0c288.71,0 219.86,-282.49 153.02,-416.87 -76.12,-153.04 -132.06,-219.98 -291.87,-291.39 -428.45,-191.43 -916.57,138.83 -916.57,638.82z"/>
    <path class="fil4" d="M39045.67 20086.25c-167.28,0 -323.54,-204.76 25.84,-307.45 68.2,-20.04 233.93,-53.61 321.34,-53.61 0,188.77 32.83,220.16 -141.08,303.31 -48.48,23.18 -140.11,57.76 -206.1,57.76zm-236.08 -777.68c35.84,0 583.26,-269.77 583.26,138.87l0 55.55c-231.9,0 -819.34,85 -819.34,430.5 0,420.69 422.87,494.77 709.31,320.47 45.01,-27.39 64.23,-46.27 110.03,-70.5 4.38,196.58 291.63,192.68 291.63,-41.66 0,-185.71 15.38,-740.18 -22.29,-894.26 -18.17,-74.32 -46.95,-112.54 -91.87,-158.1 -203.54,-206.46 -595.79,-161.07 -799.98,-42.31 -176.9,102.88 -65.56,261.44 39.25,261.44z"/>
    <path class="fil4" d="M43364.57 22766.47c-267.06,0 -229.29,-193.91 -139.31,-250.41 84.12,-52.83 363.24,-102.71 458.72,-110.65l0 222.19c-75.74,40.08 -194.92,138.87 -319.4,138.87zm-388.84 -916.55c0,273.24 273.73,55.55 444.39,55.55 75.99,0 176.78,6.59 225.36,66.27 37.62,46.21 38.5,130.09 38.5,211.47 -81.88,19.07 -191.58,27.14 -277.89,41.52 -246.7,41.09 -541.45,121.78 -541.45,430.65 0,300.3 341.94,505.99 730.47,272.19 38.36,-23.08 57.54,-42.9 88.87,-63.89 4.44,199.01 291.63,204 291.63,-27.78l0 -722.13c0,-165.88 -39.13,-275.91 -128.08,-357.97 -268.28,-247.48 -871.8,-84.11 -871.8,94.11z"/>
    <path class="fil4" d="M34199.05 22766.47c-64.14,0 -110.61,3.8 -157.39,-37.03 -70.74,-61.75 -68.44,-161.36 18.15,-213.3 90.66,-54.38 355.23,-102.13 458.64,-110.73l0 222.19c-83.64,44.26 -196.2,138.87 -319.41,138.87zm-277.74 -777.68c70.04,0 101.98,-26.36 161.12,-47.19 105.64,-37.2 314.3,-73.05 395.6,32.06 35.78,46.25 40.43,124.56 40.43,209.55 -190.51,44.38 -285.64,19.85 -533.2,105.61 -576.97,199.86 -202.77,960.78 353.07,686.36 119.93,-59.21 81.92,-45.73 180.13,-111.5 4.39,197.12 291.63,221.9 291.63,-55.55l0 -638.81c0,-237.73 -48.67,-419.84 -265.35,-498.44 -204.24,-74.08 -464.84,-37.3 -628.26,49.22 -53.51,28.33 -106.91,61.58 -113.84,133.65 -6.13,63.69 40.46,135.04 118.67,135.04z"/>
    <path class="fil4" d="M38976.23 22766.47c-242.35,0 -377,-301.96 333.29,-361.07l0 222.19c-81.97,54.89 -199.77,138.87 -333.29,138.87zm-374.95 -916.55c0,268.51 242.94,55.55 499.94,55.55 211.04,0 208.31,152.29 208.31,277.74 -243.72,56.78 -819.34,37.55 -819.34,472.16 0,298.32 338.98,469.15 639.07,319.67 132.05,-65.78 80.37,-44.46 180.28,-111.36 4.36,195.94 291.63,208.41 291.63,-27.78l0 -749.91c0,-449.67 -445.75,-528.4 -803.64,-400.91 -74.08,26.39 -196.24,64.95 -196.24,164.83z"/>
    <path class="fil4" d="M37018.14 20086.25c-190.56,0 -301.26,-225.95 24.54,-308.75 63.82,-16.22 231.51,-52.31 308.75,-52.31l0 194.42c0,69.31 -241,166.65 -333.29,166.65zm-236.08 -777.68c100.71,0 80.19,-83.32 388.84,-83.32 209.98,0 180.53,158.9 180.53,277.74 -241.89,5.39 -805.45,89.07 -805.45,430.5 0,225.49 113.33,373.18 334.2,402.78 277.66,37.21 419.06,-135.16 485.15,-152.81 4.47,200.91 277.74,169.45 277.74,13.89l0 -888.78c0,-227.99 -239.56,-361.06 -499.94,-361.06 -390.64,0 -600.71,210.97 -452.93,327.91 12.9,10.21 75.36,33.15 91.87,33.15z"/>
    <path class="fil4" d="M46878.02 21808.26c-17.43,-209.46 -305.52,-206.74 -305.52,13.89l0 1013.76c0,176.32 187.25,241.01 275.74,109.09 55.59,-82.87 28.43,-613.6 28.85,-762.72 0.81,-283.81 528.35,-415.13 586.87,-71.19 42.91,252.17 -40.67,767.27 48.38,854.3 96.44,94.26 254.45,32.8 254.45,-101.71l0 -777.68c0,-378.94 -453.22,-603.92 -805.69,-347.41 -34.85,25.36 -48.17,46.3 -83.08,69.67z"/>
    <path class="fil4" d="M50572 22030.45c0,442.38 708.24,364.41 708.24,611.04 0,102.44 -120.28,124.98 -222.19,124.98 -222.16,0 -299.91,-136.94 -415.5,-97.19 -172.36,59.27 -117.59,361.05 443.27,361.05 224.78,0 486.05,-141.09 486.05,-361.07 0,-159.76 4.64,-224.99 -148.43,-337.62 -176.09,-129.57 -686.31,-193.06 -529.42,-381.48 91.1,-109.42 338.69,-31.77 436.55,2.87 202.67,71.74 310.42,-180.11 34.99,-271.75 -389.19,-129.48 -793.57,5.63 -793.57,349.18z"/>
    <path class="fil4" d="M37268.11 21822.14c0,117.47 99.05,97.21 208.31,97.21l0 583.26c0,326.66 113.52,527.71 444.39,527.71 101.53,0 416.61,-53.59 416.61,-208.31 0,-219.54 -254.8,-93.19 -258.68,-92.04 -143.68,42.59 -296.8,34.27 -296.8,-157.93 0,-709.5 -48.12,-656.02 124.5,-653.18 258.96,4.27 403.21,41.99 403.21,-138.39 0,-174.92 -284.72,-124.98 -527.71,-124.98 0,-132.42 19.87,-208.31 -111.1,-208.31 -23.31,0 -402.73,302.63 -402.73,374.95z"/>
    <path class="fil4" d="M45294.88 21836.03c0,76.44 61.28,82 139.67,82.52 113.77,0.76 83.8,32.4 82.64,153.44 -1.46,152.57 -0.03,305.76 -0.12,458.4 -0.12,209.04 17.72,373.29 221.98,458.48 222.29,92.71 625.13,11.15 625.13,-180.74 0,-220.37 -291.7,-55.55 -361.06,-55.55 -139.02,0 -194.42,-68.67 -194.42,-208.31 0,-683.49 -46.1,-628.21 124.5,-625.4 283.75,4.68 403.21,36.37 403.21,-138.39 0,-174.92 -284.73,-124.98 -527.71,-124.98 0,-95.03 18.26,-208.31 -83.32,-208.31 -80.78,0 -179.98,123.8 -236.08,166.65 -52.18,39.85 -194.42,153.28 -194.42,222.19z"/>
    <path class="fil4" d="M39948.33 21058.35l0 1763.67c0,96.76 48.41,168.47 133.19,187.1 88.85,19.53 172.33,-57.13 172.33,-145.44l0 -1819.22c0,-227.41 -305.52,-222.97 -305.52,13.89z"/>
    <path class="fil4" d="M38004.13 18364.24l0 1791.44c0,222.96 305.52,231.18 305.52,-13.89l0 -1791.44c0,-193.04 -305.52,-221.31 -305.52,13.89z"/>
    <path class="fil4" d="M33851.87 18378.13l0 1763.67c0,245.07 305.52,236.85 305.52,13.89l0 -1819.22c0,-167.58 -305.52,-218.62 -305.52,41.66z"/>
    <path class="fil4" d="M44628.3 21849.92c0,-291.42 -305.52,-218.55 -305.52,-41.66l0 1027.65c0,206.71 246.33,242.79 297.78,61.69 43.69,-153.78 -38.72,-702.03 38.62,-794.6 164.86,-197.33 313.53,-140.78 392.01,-163.48 66.81,-19.32 118.83,-83.04 114.48,-157.46 -10.73,-183.75 -288.56,-218.41 -537.38,67.86z"/>
    <path class="fil4" d="M49903.61 21836.03l-20.69 22.8 -9.37 -64.46c17.67,-186.74 -279.3,-194.9 -288.31,13.11 -8.25,190.24 0.78,404.85 0.78,597.92 0,144.12 -31.22,464.89 32.52,550.75 43.29,58.31 135.27,75.13 200.26,29.39 144.3,-101.55 10.58,-449.63 59.75,-801.44 8.43,-60.31 77.86,-134.09 126.3,-165.33 77.02,-49.69 116.06,-65.64 233.72,-71.8 234.41,-12.27 242.57,-262.82 64.19,-300.62 -168.74,-35.75 -334.14,103.46 -399.13,189.68z"/>
    <path class="fil4" d="M36754.29 21794.37l0 1069.31c0,191.3 305.52,215.51 305.52,-41.66l0 -985.99c0,-260.28 -305.52,-209.24 -305.52,-41.66z"/>
    <path class="fil4" d="M36726.51 21197.22c0,232.86 361.07,221.5 361.07,0 0,-231.56 -361.07,-252.85 -361.07,0z"/>
    <path class="fil4" d="M35643.31 19185.22l0 -598.78 611.55 0.63c3.43,0.02 41.22,0.18 41.75,0.11 65.31,-9.43 15.7,1.97 41.06,-17.8 -128.3,-0.21 -614.99,-15.77 -702.44,9.19 -5.75,37.1 -21.91,554.05 8.09,606.65z"/>
    <path class="fil4" d="M35626.43 20197.35c12.01,-15.57 16.57,3.73 17.97,-68.54l-1.09 -653.59c59.99,0 562.27,20.73 611.04,-16.88l-618.21 2.9 -9.71 736.11z"/>
    <path class="fil4" d="M41739.77 22014.75l0 -748.09 325.11 0c-20.52,-23.59 -288.19,-13.78 -330.65,-5.35 -1.2,103.4 -25.78,703.99 5.54,753.44z"/>
    <path class="fil4" d="M49903.61 21836.03l-10.07 -16.65c-1.21,-1.64 -4.63,-6.56 -6,-8.37 -1.43,-1.89 -5.45,-6.63 -6.78,-8.34 -1.36,-1.76 -4.84,-5.51 -7.22,-8.31l9.37 64.46 20.69 -22.8z"/>
   </g>
  </g>
 </g>
</svg>
